<svg xmlns="http://www.w3.org/2000/svg" width="960" height="460" viewBox="0 0 960 460">
  <rect width="960" height="460" fill="#fbfbfd"/>
  <text x="480" y="42" text-anchor="middle" font-size="26" font-family="Arial, 'PingFang SC', sans-serif" fill="#202124">闭合电路中的能量转化</text>

  <rect x="105" y="160" width="95" height="140" rx="12" fill="#fff3e0" stroke="#f57c00" stroke-width="4"/>
  <line x1="132" y1="190" x2="172" y2="190" stroke="#e65100" stroke-width="5"/>
  <line x1="152" y1="170" x2="152" y2="210" stroke="#e65100" stroke-width="5"/>
  <line x1="132" y1="268" x2="172" y2="268" stroke="#e65100" stroke-width="5"/>
  <text x="152" y="330" text-anchor="middle" font-size="18" font-family="Arial, 'PingFang SC', sans-serif" fill="#202124">电源</text>

  <circle cx="730" cy="230" r="58" fill="#fffde7" stroke="#fbc02d" stroke-width="5"/>
  <path d="M705 225 C720 190, 750 190, 755 225 C760 255, 735 270, 730 285 C725 270, 700 255, 705 225 Z" fill="#ffca28"/>
  <text x="730" y="330" text-anchor="middle" font-size="18" font-family="Arial, 'PingFang SC', sans-serif" fill="#202124">灯泡 / 负载</text>

  <path d="M200 190 H730" stroke="#424242" stroke-width="6" fill="none"/>
  <path d="M730 288 V365 H152 V300" stroke="#424242" stroke-width="6" fill="none"/>
  <path d="M245 190 L275 175 L275 205 Z" fill="#1976d2"/>
  <path d="M515 190 L545 175 L545 205 Z" fill="#1976d2"/>
  <path d="M530 365 L500 350 L500 380 Z" fill="#1976d2"/>
  <path d="M300 365 L270 350 L270 380 Z" fill="#1976d2"/>

  <text x="465" y="150" text-anchor="middle" font-size="18" font-family="Arial, 'PingFang SC', sans-serif" fill="#1976d2">约定电流方向：从正极流向负极</text>
  <text x="480" y="408" text-anchor="middle" font-size="19" font-family="Arial, 'PingFang SC', sans-serif" fill="#202124">电源维持电势差，电荷在闭合回路中定向运动，负载把电能转化为光、热、机械能等</text>
</svg>
